<svg width="26" height="24" viewBox="0 0 26 24" fill="none" xmlns="http://www.w3.org/2000/svg">
<path d="M15.3133 15.3998L20.1288 10.8098C20.3242 10.6224 20.4338 10.369 20.4338 10.1048C20.4338 9.84062 20.3242 9.58716 20.1288 9.3998C20.0312 9.30607 19.9152 9.23168 19.7874 9.18091C19.6595 9.13014 19.5224 9.104 19.3839 9.104C19.2454 9.104 19.1083 9.13014 18.9804 9.18091C18.8526 9.23168 18.7365 9.30607 18.639 9.3998L13.8341 13.9998C13.7365 14.0935 13.6205 14.1679 13.4927 14.2187C13.3648 14.2695 13.2277 14.2956 13.0892 14.2956C12.9507 14.2956 12.8136 14.2695 12.6857 14.2187C12.5579 14.1679 12.4418 14.0935 12.3443 13.9998L7.53937 9.3998C7.34321 9.2115 7.0766 9.10518 6.79821 9.10425C6.51981 9.10331 6.25242 9.20782 6.05487 9.3948C5.85732 9.58178 5.74578 9.8359 5.7448 10.1013C5.74381 10.3666 5.85346 10.6215 6.04963 10.8098L10.8651 15.3998C11.4552 15.9616 12.2551 16.2772 13.0892 16.2772C13.9232 16.2772 14.7232 15.9616 15.3133 15.3998Z" fill="#169BD7"/>
</svg>
