<svg width="66" height="66" viewBox="0 0 66 66" fill="none" xmlns="http://www.w3.org/2000/svg">
<g filter="url(#filter0_d_7_110)">
<circle cx="33" cy="27" r="21" fill="#169BD7"/>
</g>
<path d="M36.3998 24.8801L31.8098 20.2901C31.6224 20.1038 31.369 19.9993 31.1048 19.9993C30.8406 19.9993 30.5872 20.1038 30.3998 20.2901C30.3061 20.383 30.2317 20.4936 30.1809 20.6155C30.1301 20.7373 30.104 20.868 30.104 21.0001C30.104 21.1321 30.1301 21.2628 30.1809 21.3846C30.2317 21.5065 30.3061 21.6171 30.3998 21.7101L34.9998 26.2901C35.0935 26.383 35.1679 26.4936 35.2187 26.6155C35.2695 26.7373 35.2956 26.868 35.2956 27.0001C35.2956 27.1321 35.2695 27.2628 35.2187 27.3846C35.1679 27.5065 35.0935 27.6171 34.9998 27.7101L30.3998 32.2901C30.2115 32.477 30.1052 32.7312 30.1042 32.9965C30.1033 33.2619 30.2078 33.5168 30.3948 33.7051C30.5818 33.8934 30.8359 33.9997 31.1013 34.0006C31.3666 34.0016 31.6215 33.897 31.8098 33.7101L36.3998 29.1201C36.9616 28.5576 37.2772 27.7951 37.2772 27.0001C37.2772 26.2051 36.9616 25.4426 36.3998 24.8801Z" fill="white"/>
<defs>
<filter id="filter0_d_7_110" x="0" y="0" width="66" height="66" filterUnits="userSpaceOnUse" color-interpolation-filters="sRGB">
<feFlood flood-opacity="0" result="BackgroundImageFix"/>
<feColorMatrix in="SourceAlpha" type="matrix" values="0 0 0 0 0 0 0 0 0 0 0 0 0 0 0 0 0 0 127 0" result="hardAlpha"/>
<feOffset dy="6"/>
<feGaussianBlur stdDeviation="6"/>
<feComposite in2="hardAlpha" operator="out"/>
<feColorMatrix type="matrix" values="0 0 0 0 0.0658854 0 0 0 0 0.188481 0 0 0 0 0.2875 0 0 0 0.21 0"/>
<feBlend mode="normal" in2="BackgroundImageFix" result="effect1_dropShadow_7_110"/>
<feBlend mode="normal" in="SourceGraphic" in2="effect1_dropShadow_7_110" result="shape"/>
</filter>
</defs>
</svg>
