<svg width="31" height="30" viewBox="0 0 31 30" fill="none" xmlns="http://www.w3.org/2000/svg">
<path d="M15.125 25H7.625C7.29348 25 6.97554 24.8683 6.74112 24.6339C6.5067 24.3995 6.375 24.0815 6.375 23.75V6.25C6.375 5.91848 6.5067 5.60054 6.74112 5.36612C6.97554 5.1317 7.29348 5 7.625 5H13.875V8.75C13.875 9.74456 14.2701 10.6984 14.9733 11.4017C15.6766 12.1049 16.6304 12.5 17.625 12.5H21.375V18.75C21.375 19.0815 21.5067 19.3995 21.7411 19.6339C21.9755 19.8683 22.2935 20 22.625 20C22.9565 20 23.2745 19.8683 23.5089 19.6339C23.7433 19.3995 23.875 19.0815 23.875 18.75V11.25C23.875 11.25 23.875 11.25 23.875 11.175C23.862 11.0602 23.8368 10.947 23.8 10.8375V10.725C23.7399 10.5965 23.6597 10.4783 23.5625 10.375L16.0625 2.875C15.9592 2.77777 15.841 2.6976 15.7125 2.6375C15.6711 2.63026 15.6289 2.63026 15.5875 2.6375C15.466 2.5725 15.3353 2.52615 15.2 2.5H7.625C6.63044 2.5 5.67661 2.89509 4.97335 3.59835C4.27009 4.30161 3.875 5.25544 3.875 6.25V23.75C3.875 24.7446 4.27009 25.6984 4.97335 26.4017C5.67661 27.1049 6.63044 27.5 7.625 27.5H15.125C15.4565 27.5 15.7745 27.3683 16.0089 27.1339C16.2433 26.8995 16.375 26.5815 16.375 26.25C16.375 25.9185 16.2433 25.6005 16.0089 25.3661C15.7745 25.1317 15.4565 25 15.125 25ZM16.375 6.7625L19.6125 10H17.625C17.2935 10 16.9755 9.8683 16.7411 9.63388C16.5067 9.39946 16.375 9.08152 16.375 8.75V6.7625ZM10.125 17.5H17.625C17.9565 17.5 18.2745 17.3683 18.5089 17.1339C18.7433 16.8995 18.875 16.5815 18.875 16.25C18.875 15.9185 18.7433 15.6005 18.5089 15.3661C18.2745 15.1317 17.9565 15 17.625 15H10.125C9.79348 15 9.47554 15.1317 9.24112 15.3661C9.0067 15.6005 8.875 15.9185 8.875 16.25C8.875 16.5815 9.0067 16.8995 9.24112 17.1339C9.47554 17.3683 9.79348 17.5 10.125 17.5ZM15.125 20H10.125C9.79348 20 9.47554 20.1317 9.24112 20.3661C9.0067 20.6005 8.875 20.9185 8.875 21.25C8.875 21.5815 9.0067 21.8995 9.24112 22.1339C9.47554 22.3683 9.79348 22.5 10.125 22.5H15.125C15.4565 22.5 15.7745 22.3683 16.0089 22.1339C16.2433 21.8995 16.375 21.5815 16.375 21.25C16.375 20.9185 16.2433 20.6005 16.0089 20.3661C15.7745 20.1317 15.4565 20 15.125 20ZM10.125 12.5H11.375C11.7065 12.5 12.0245 12.3683 12.2589 12.1339C12.4933 11.8995 12.625 11.5815 12.625 11.25C12.625 10.9185 12.4933 10.6005 12.2589 10.3661C12.0245 10.1317 11.7065 10 11.375 10H10.125C9.79348 10 9.47554 10.1317 9.24112 10.3661C9.0067 10.6005 8.875 10.9185 8.875 11.25C8.875 11.5815 9.0067 11.8995 9.24112 12.1339C9.47554 12.3683 9.79348 12.5 10.125 12.5ZM27.2625 20.3625C27.1463 20.2453 27.008 20.1523 26.8557 20.0889C26.7034 20.0254 26.54 19.9928 26.375 19.9928C26.21 19.9928 26.0466 20.0254 25.8943 20.0889C25.742 20.1523 25.6037 20.2453 25.4875 20.3625L21.375 24.4875L19.7625 22.8625C19.646 22.746 19.5076 22.6535 19.3553 22.5904C19.203 22.5273 19.0398 22.4949 18.875 22.4949C18.7102 22.4949 18.547 22.5273 18.3947 22.5904C18.2424 22.6535 18.104 22.746 17.9875 22.8625C17.871 22.979 17.7785 23.1174 17.7154 23.2697C17.6523 23.422 17.6199 23.5852 17.6199 23.75C17.6199 23.9148 17.6523 24.078 17.7154 24.2303C17.7785 24.3826 17.871 24.521 17.9875 24.6375L20.4875 27.1375C20.6037 27.2547 20.742 27.3477 20.8943 27.4111C21.0466 27.4746 21.21 27.5072 21.375 27.5072C21.54 27.5072 21.7034 27.4746 21.8557 27.4111C22.008 27.3477 22.1463 27.2547 22.2625 27.1375L27.2625 22.1375C27.3797 22.0213 27.4727 21.883 27.5361 21.7307C27.5996 21.5784 27.6322 21.415 27.6322 21.25C27.6322 21.085 27.5996 20.9216 27.5361 20.7693C27.4727 20.617 27.3797 20.4787 27.2625 20.3625Z" fill="#40AE49"/>
</svg>
